<svg width="24" height="22" viewBox="0 0 24 22" fill="none" xmlns="http://www.w3.org/2000/svg">
<path d="M23.2944 0.596985C22.8894 0.253545 22.2533 0.204405 21.5956 0.468465H21.5945C20.9028 0.746025 2.01356 8.84818 1.2446 9.1792C1.10474 9.2278 -0.116743 9.68356 0.00907679 10.6988C0.121397 11.6141 1.10312 11.9931 1.223 12.0369L6.02522 13.6812C6.34382 14.7417 7.51832 18.6546 7.77806 19.4905C7.94006 20.0116 8.20412 20.6963 8.6669 20.8373C9.07298 20.9939 9.4769 20.8508 9.73826 20.6456L12.6742 17.9223L17.4138 21.6186L17.5267 21.6861C17.8485 21.8287 18.1569 21.9 18.4512 21.9C18.6785 21.9 18.8967 21.8573 19.1051 21.772C19.8152 21.4804 20.0992 20.8038 20.1289 20.7271L23.6692 2.32552C23.8852 1.34272 23.5849 0.842685 23.2944 0.596985ZM10.2604 14.3389L8.64044 18.6589L7.02044 13.2589L19.4404 4.0789L10.2604 14.3389Z" fill="black"/>
</svg>
