<svg width="24" height="24" viewBox="0 0 24 24" fill="none" xmlns="http://www.w3.org/2000/svg">
<path d="M19.9232 3.71605C17.7228 1.51455 14.7968 0.301215 11.6795 0.300049C5.25583 0.300049 0.0280001 5.52555 0.0256667 11.9492C0.0245001 14.0025 0.561167 16.0069 1.58083 17.7732L0 23.6334L6.10517 22.1902C7.80733 23.1189 9.723 23.6077 11.6737 23.6089H11.6783C18.1008 23.6089 23.3287 18.3822 23.3322 11.9597C23.3345 8.84588 22.1235 5.91872 19.9232 3.71605ZM17.381 16.113C17.1383 16.7932 15.9495 17.4489 15.4152 17.4967C14.8808 17.5457 14.3803 17.7382 11.921 16.7687C8.96117 15.602 7.09217 12.5675 6.9475 12.3739C6.80167 12.179 5.75867 10.7954 5.75867 9.36272C5.75867 7.93005 6.51117 7.22538 6.77833 6.93488C7.0455 6.64322 7.3605 6.57088 7.55533 6.57088C7.749 6.57088 7.94383 6.57088 8.113 6.57788C8.32067 6.58605 8.5505 6.59655 8.76867 7.08072C9.02767 7.65705 9.5935 9.09672 9.66583 9.24255C9.73816 9.38838 9.78716 9.55872 9.69033 9.75238C9.5935 9.94605 9.5445 10.0674 9.39983 10.2377C9.254 10.408 9.09416 10.6169 8.9635 10.7475C8.81767 10.8922 8.666 11.0509 8.83517 11.3414C9.0055 11.633 9.58883 12.5862 10.4545 13.3574C11.5675 14.3491 12.5043 14.6559 12.796 14.8029C13.0877 14.9487 13.2568 14.9242 13.4272 14.7294C13.5975 14.5357 14.1552 13.88 14.3488 13.5884C14.5425 13.2967 14.7373 13.3457 15.0045 13.4425C15.2717 13.5394 16.7032 14.244 16.9937 14.3899C17.2853 14.5357 17.479 14.608 17.5513 14.7294C17.6237 14.8496 17.6237 15.4329 17.381 16.113Z" fill="black"/>
</svg>
