<svg width="137" height="121" viewBox="0 0 137 121" fill="none" xmlns="http://www.w3.org/2000/svg">
<path d="M14.3403 101.565H8.37627V96.0817H14.6757C16.9804 96.0817 18.1353 97.0085 18.1353 98.8659C18.1353 100.665 16.8741 101.565 14.3518 101.565H14.3403ZM18.6462 96.0302C17.8267 95.3608 16.6821 95.0261 15.2096 95.0261L6.65161 95.0699V108.2H8.37627L8.36091 102.616H14.7282C16.3248 102.616 17.5834 102.281 18.4989 101.612C19.4144 100.942 19.8753 100.015 19.8753 98.8273C19.8753 97.6392 19.4656 96.7124 18.6462 96.043V96.0302ZM29.8072 105.422C29.6361 105.859 29.354 106.244 28.989 106.538C28.217 107.225 27.039 107.568 25.4552 107.568C24.0237 107.568 22.9252 107.233 22.1595 106.564C21.3938 105.894 21.0097 105.001 21.0097 103.88C21.0097 103.297 21.1096 102.778 21.3106 102.326C21.5069 101.88 21.8052 101.488 22.1813 101.18C22.9751 100.521 24.0634 100.192 25.4552 100.192C28.5332 100.192 30.0722 101.421 30.0722 103.878C30.0722 104.463 29.9826 104.975 29.8097 105.418L29.8072 105.422ZM30.1221 100.578C29.0722 99.7026 27.5153 99.265 25.4552 99.265C23.509 99.265 22.0033 99.7117 20.9431 100.604C19.9854 101.412 19.5066 102.502 19.5066 103.873C19.5066 105.244 20.0008 106.336 20.9918 107.172C21.5521 107.631 22.2028 107.965 22.9008 108.152C23.6268 108.354 24.4795 108.455 25.4577 108.455C27.5063 108.455 29.0684 108.022 30.1401 107.157C31.0978 106.368 31.5767 105.273 31.5767 103.872C31.5767 102.462 31.0927 101.362 30.1234 100.573L30.1221 100.578ZM43.164 105.8C43.164 107.566 41.4304 108.448 37.9619 108.448C36.9017 108.448 36.0093 108.386 35.2833 108.264C34.5574 108.142 33.9684 107.937 33.5164 107.654C33.1669 107.438 32.8762 107.156 32.6842 106.808C32.4669 106.402 32.3308 105.957 32.2834 105.498L33.8967 105.485C33.8967 106.18 34.1784 106.691 34.7443 107.021C35.3499 107.416 36.4241 107.613 37.9644 107.613C40.3882 107.613 41.6007 107.059 41.6007 105.939C41.6007 105.292 41.1948 104.845 40.3818 104.601C40.2153 104.553 39.2371 104.429 37.4408 104.214L34.0836 103.674C33.1272 103.326 32.6496 102.702 32.6496 101.8C32.6496 100.917 33.0772 100.259 33.9325 99.8275C34.3551 99.6473 34.8826 99.5108 35.5164 99.4117C36.1501 99.3126 36.8838 99.2637 37.7186 99.2637C41.0565 99.2637 42.7121 100.219 42.7121 102.13H41.1756C41.1756 100.788 40.0028 100.116 37.6546 100.116C36.4613 100.116 35.5701 100.252 34.9837 100.524C34.3973 100.796 34.1041 101.214 34.1041 101.778C34.1041 102.293 34.4882 102.684 35.2923 102.918C35.7558 103.04 36.8211 103.182 38.4881 103.34C39.981 103.463 41.004 103.636 41.561 103.862C42.6212 104.238 43.1512 104.876 43.1512 105.777L43.164 105.8ZM49.4993 108.192L48.8425 108.276L48.4328 108.304C47.3829 108.304 46.6249 108.165 46.1601 107.887C45.6953 107.609 45.4636 107.122 45.4636 106.426V100.44H43.5494V99.5598H45.4482L45.4636 96.7317H46.936V99.5598H49.4968V100.454L46.936 100.442V106.265C46.936 106.699 47.0615 106.999 47.315 107.163C47.5685 107.328 48.0192 107.411 48.6658 107.411C48.758 107.42 48.8617 107.417 48.9731 107.402C49.0845 107.386 49.2548 107.35 49.4827 107.296L49.498 108.195L49.4993 108.192ZM59.6745 106.207C59.2591 106.514 58.7945 106.748 58.3006 106.897C57.7859 107.057 57.1944 107.136 56.526 107.136C53.4493 107.136 51.9115 105.978 51.9115 103.661C51.9115 102.582 52.3046 101.736 53.0921 101.128C53.8795 100.519 54.987 100.227 56.4172 100.227C57.8576 100.227 58.9523 100.535 59.6949 101.148C60.4376 101.761 60.814 102.586 60.814 103.62C60.814 104.746 60.4337 105.615 59.6719 106.224L59.6745 106.207ZM62.2839 99.5816H60.8178L60.8025 101.062C60.1546 100.461 59.6911 100.081 59.4133 99.9215C58.59 99.5096 57.5247 99.3036 56.2174 99.3036C54.302 99.3036 52.8411 99.6898 51.8322 100.501C50.8744 101.234 50.3956 102.294 50.3956 103.683C50.3956 104.368 50.5172 104.98 50.7592 105.52C50.9983 106.055 51.3613 106.526 51.8181 106.892C52.8424 107.662 54.2559 108.046 56.1022 108.046C58.3173 108.046 59.8921 107.493 60.8191 106.373V107.918C60.8191 108.896 60.4811 109.65 59.7948 110.186C59.1085 110.721 58.0113 110.989 56.4658 110.989C55.0139 110.989 53.9794 110.806 53.3622 110.442C52.8987 110.161 52.594 109.675 52.4045 108.984H50.8911C51.0575 109.949 51.5057 110.649 52.2355 111.082C53.0805 111.579 54.5056 111.828 56.5145 111.828C60.3556 111.828 62.2762 110.526 62.2762 107.92V99.5533L62.2839 99.5816ZM70.2439 100.451C69.8354 100.388 69.4229 100.355 69.0097 100.353C66.5923 100.353 65.3836 101.563 65.3836 103.983V108.189H63.9291L63.9138 99.5816L65.3862 99.5945V101.13H65.463C65.6875 100.551 66.1011 100.066 66.6358 99.7541C67.2223 99.4516 68.0955 99.2997 69.2606 99.2997H70.2465V100.452L70.2439 100.451ZM71.6114 103.326C71.797 102.348 72.2132 101.591 72.861 101.054C73.2835 100.745 73.7611 100.511 74.2951 100.355C74.829 100.2 75.432 100.124 76.0876 100.124C77.3935 100.124 78.4614 100.451 79.2885 101.104C80.1156 101.758 80.5305 102.499 80.5305 103.327H71.5935L71.6114 103.326ZM80.6739 100.672C80.1592 100.201 79.5215 99.852 78.7584 99.6267C77.9953 99.4014 77.0939 99.2869 76.0863 99.2869C74.1657 99.2869 72.7023 99.6911 71.6511 100.499C70.5999 101.308 70.0762 102.407 70.0762 103.799C70.0762 105.19 70.5807 106.293 71.5896 107.111C72.6805 108.012 74.2208 108.462 76.2079 108.462C77.0018 108.462 77.7341 108.38 78.4102 108.205C79.0862 108.03 79.6739 107.81 80.1771 107.51C81.0631 106.93 81.6239 106.213 81.8608 105.363H80.2706C79.7251 106.834 78.3666 107.57 76.1951 107.57C74.6612 107.57 73.4807 107.21 72.6613 106.489C71.9507 105.871 71.596 105.073 71.596 104.091H82.0951C82.0951 102.631 81.6265 101.485 80.6892 100.656L80.6739 100.672Z" fill="#231F20"/>
<path d="M97.6388 104.659C97.6388 107.214 95.3802 108.492 90.8605 108.492C88.1525 108.492 86.1769 108.052 84.9323 107.171C83.9132 106.448 83.4036 105.343 83.4036 103.861H85.2217C85.2217 106.246 87.1 107.439 90.8592 107.439C92.6607 107.439 93.9641 107.182 94.7682 106.705C95.4468 106.274 95.7873 105.598 95.7873 104.678C95.7873 103.768 95.3238 103.129 94.3968 102.764C93.8847 102.567 92.589 102.318 90.5506 102.017C87.986 101.661 86.3254 101.304 85.561 100.949C84.4599 100.424 83.8965 99.5328 83.8965 98.2739C83.8965 97.1154 84.3651 96.2144 85.3024 95.6557C86.3113 95.0275 88.0424 94.7122 90.493 94.7122C94.9231 94.7122 97.1356 96.0535 97.1356 98.7373H95.3008C95.3008 96.7267 93.6568 95.7226 90.3688 95.7226C88.7197 95.7226 87.5136 95.9247 86.7505 96.3276C86.0283 96.7601 85.6685 97.3935 85.6685 98.2302C85.6685 99.1055 86.132 99.7195 87.059 100.076C87.5533 100.282 89.0052 100.569 91.4149 100.936C93.6811 101.245 95.2099 101.608 96.0037 102.021C97.0856 102.528 97.626 103.407 97.626 104.657L97.6388 104.659ZM112.414 105.963C111.717 106.468 110.938 106.846 110.111 107.081C109.256 107.33 108.297 107.467 107.235 107.467C105.059 107.467 103.321 106.936 101.986 105.871C100.65 104.807 99.9972 103.374 99.9972 101.601C99.9972 99.7543 100.659 98.3151 101.982 97.2828C103.304 96.2504 105.061 95.7355 107.247 95.7355C109.462 95.7355 111.206 96.2761 112.473 97.3536C113.107 97.841 113.616 98.4728 113.958 99.1969C114.291 99.901 114.437 100.703 114.437 101.604C114.437 103.442 113.768 104.895 112.427 105.964L112.414 105.963ZM113.394 106.834C114.341 106.224 115.043 105.485 115.496 104.617C115.949 103.75 116.177 102.747 116.177 101.612C116.177 99.5753 115.435 97.9431 113.952 96.7125C113.158 96.0367 112.2 95.5347 111.079 95.2064C109.957 94.8782 108.672 94.7134 107.233 94.7134C104.431 94.7134 102.233 95.3313 100.636 96.5722C99.0395 97.8131 98.2418 99.4904 98.2418 101.612C98.2171 102.578 98.4236 103.537 98.8441 104.406C99.2645 105.276 99.8866 106.031 100.658 106.609C102.267 107.875 104.471 108.509 107.261 108.509C108.216 108.519 109.171 108.451 110.116 108.307C110.928 108.171 111.619 107.966 112.186 107.686L114.875 109.385L115.997 108.446L113.395 106.837L113.394 106.834ZM129.788 108.173H117.359V95.043L119.067 95.0147V107.076H129.803L129.788 108.173Z" fill="#367FAF"/>
<path d="M86.4841 63.9176C86.9732 59.8177 86.8272 59.2166 89.8643 59.8808L90.6351 59.949C92.9705 60.0559 96.0126 59.5719 97.8205 58.7326C101.685 56.9305 103.975 53.9209 100.166 54.7113C91.4763 56.5134 90.8783 53.5553 90.8783 53.5553C100.055 39.8669 103.891 22.4892 100.58 18.2336C91.548 6.63179 75.9159 12.1193 75.6534 12.2609L75.5702 12.2763C73.8519 11.9185 71.9314 11.7048 69.7726 11.6687C65.8419 11.6044 62.8561 12.705 60.5924 14.4311C60.5924 14.4311 32.7058 2.8795 34.0016 28.9589C34.2781 34.494 41.9117 70.9381 51.0152 59.9336C54.3441 55.9097 57.5579 52.5062 57.5579 52.5062C59.1545 53.5746 61.0661 54.1153 63.0712 53.9222L63.2248 53.7896C63.1762 54.2891 63.1992 54.7782 63.2863 55.3562C60.9406 57.9911 61.6307 58.4533 56.9407 59.4238C52.197 60.4073 54.9843 62.1566 56.8037 62.6136C59.0098 63.1671 64.1147 63.9523 67.5614 59.0994L67.4244 59.653C68.3463 60.3931 68.2823 64.9718 68.4129 68.2427C68.5435 71.5135 68.7611 74.5669 69.4372 76.3677C70.1132 78.1685 70.884 82.8039 77.0465 81.4754C82.1974 80.3658 86.1345 78.7684 86.4956 63.9124" fill="#231F20"/>
<path d="M86.4841 63.9176C86.9732 59.8177 86.8272 59.2166 89.8643 59.8808L90.6351 59.949C92.9705 60.0559 96.0126 59.5719 97.8205 58.7326C101.685 56.9305 103.975 53.9209 100.166 54.7113C91.4763 56.5134 90.8783 53.5553 90.8783 53.5553C100.055 39.8669 103.891 22.4892 100.58 18.2336C91.548 6.63179 75.9159 12.1193 75.6534 12.2609L75.5702 12.2763C73.8519 11.9185 71.9314 11.7048 69.7726 11.6687C65.8419 11.6044 62.8561 12.705 60.5924 14.4311C60.5924 14.4311 32.7058 2.8795 34.0016 28.9589C34.2781 34.494 41.9117 70.9381 51.0152 59.9336C54.3441 55.9097 57.5579 52.5062 57.5579 52.5062C59.1545 53.5746 61.0661 54.1153 63.0712 53.9222L63.2248 53.7896C63.1762 54.2891 63.1992 54.7782 63.2863 55.3562C60.9406 57.9911 61.6307 58.4533 56.9407 59.4238C52.197 60.4073 54.9843 62.1566 56.8037 62.6136C59.0098 63.1671 64.1147 63.9523 67.5614 59.0994L67.4244 59.653C68.3463 60.3931 68.2823 64.9718 68.4129 68.2427C68.5435 71.5135 68.7611 74.5669 69.4372 76.3677C70.1132 78.1685 70.884 82.8039 77.0465 81.4754C82.1974 80.3658 86.1345 78.7684 86.4956 63.9124" stroke="#231F20" stroke-width="5.046"/>
<path d="M100.167 54.7113C91.4762 56.5134 90.8783 53.5554 90.8783 53.5554C100.055 39.8656 103.891 22.488 100.581 18.2336C91.5492 6.63309 75.9159 12.1193 75.6547 12.2609L75.5702 12.2763C73.8519 11.9185 71.9313 11.7048 69.7701 11.6688C65.8393 11.6044 62.8561 12.705 60.5898 14.4312C60.5898 14.4312 32.7007 2.8808 33.9964 28.9589C34.2717 34.494 41.9053 70.9382 51.01 59.9349C54.339 55.911 57.5399 52.5075 57.5399 52.5075C59.1366 53.5759 61.0482 54.1166 63.0532 53.9235L63.2094 53.7909C63.1608 54.2904 63.1838 54.7795 63.2735 55.3575C60.9278 57.9924 61.6167 58.4546 56.9279 59.4251C52.1829 60.4086 54.969 62.1579 56.7896 62.6149C58.9957 63.1684 64.1006 63.9536 67.5473 59.1008L67.4103 59.6543C68.3296 60.3944 68.975 64.4685 68.8661 68.1603C68.7573 71.8521 68.6869 74.3879 69.4103 76.369C70.1337 78.3501 70.8571 82.8052 77.0208 81.4767C82.1718 80.3671 84.8401 77.4915 85.2114 72.6952C85.4751 69.2841 86.0692 69.7887 86.1076 66.7405L86.5865 65.2988C87.1371 60.6776 86.6736 59.1844 89.8476 59.8795L90.6184 59.9478C92.9538 60.0546 96.0088 59.5706 97.8051 58.7313C101.668 56.9292 103.96 53.9196 100.151 54.71L100.167 54.7113Z" fill="#417BA2"/>
<path d="M75.624 12.1476C74.6573 12.4527 91.1485 6.08733 100.52 18.1255C103.829 22.3786 100.007 39.7562 90.8169 53.4472M67.9366 57.3617C67.6972 65.963 67.9968 74.6107 68.8329 76.7295C69.669 78.8482 71.4628 82.9288 77.629 81.6016C82.7787 80.492 84.6532 78.3449 85.4649 73.6028C86.0641 70.1272 87.219 60.4266 87.3663 58.4417L67.9366 57.3617ZM60.5617 14.2407C60.5617 14.2407 32.6533 2.78429 33.9516 28.8508C34.2282 34.3859 41.8618 70.8313 50.9806 59.8268C54.3096 55.8029 57.3185 52.6466 57.3185 52.6466L60.5617 14.2407Z" stroke="white" stroke-width="1.682" stroke-linecap="round" stroke-linejoin="round"/>
<path d="M90.8168 53.4459C90.8168 53.4459 91.4147 56.4066 100.106 54.6019C103.914 53.8115 101.622 56.8211 97.7602 58.6245C94.59 60.1048 87.484 60.4819 87.3674 58.4391C87.0678 53.1666 91.1061 54.7679 90.8168 53.4472C90.553 52.2578 88.7464 51.089 87.5518 48.1773C86.5083 45.635 73.2462 26.1398 91.2303 29.0361C91.8897 28.8997 86.5403 11.8387 69.7098 11.5619C52.8793 11.2852 53.4491 32.3662 53.4491 32.3662" stroke="white" stroke-width="1.682" stroke-linecap="round" stroke-linejoin="bevel"/>
<path d="M63.2288 55.2507C60.8831 57.8856 61.5733 58.3477 56.8832 59.3183C52.1395 60.3018 54.9268 62.0511 56.745 62.5081C58.9511 63.0616 64.0559 63.8494 67.5027 58.9939C68.5526 57.5162 67.4963 55.158 66.0558 54.5556C65.3593 54.2659 64.4272 53.9016 63.2288 55.2507Z" stroke="white" stroke-width="1.682" stroke-linejoin="round"/>
<path d="M63.0739 55.2043C62.8383 53.6557 63.5809 51.8124 64.376 49.6563C65.5719 46.4215 68.3324 43.1841 66.1237 32.9222C64.4784 25.2735 53.4429 31.3299 53.4352 32.3687C53.4275 33.4075 53.9474 37.6258 53.2508 42.5379C52.3584 48.9483 57.3096 54.3727 63.0099 53.8179" stroke="white" stroke-width="1.682" stroke-linecap="round" stroke-linejoin="round"/>
<path d="M60.4489 32.2105C60.3977 32.5645 61.0942 33.5106 61.9982 33.6368C62.9021 33.7629 63.6755 33.0253 63.7267 32.6714C63.7779 32.3174 63.0814 31.9273 62.1774 31.7999C61.2735 31.6725 60.4976 31.8578 60.4489 32.2118V32.2105Z" fill="white" stroke="white" stroke-width="0.561"/>
<path d="M87.9938 31.4884C88.0424 31.8423 87.3485 32.7756 86.4445 32.9146C85.5406 33.0536 84.7672 32.3032 84.716 31.9492C84.6648 31.5952 85.3626 31.2052 86.2678 31.0777C87.1731 30.9503 87.9451 31.1357 87.9964 31.4896L87.9938 31.4884Z" fill="white" stroke="white" stroke-width="0.28"/>
<path d="M91.2306 29.0361C91.3791 31.814 90.6352 33.7088 90.5418 36.6656C90.4009 40.9649 92.5801 45.8847 89.2998 50.8123" stroke="white" stroke-width="1.682" stroke-linecap="round" stroke-linejoin="round"/>
</svg>
