<svg width="104" height="115" viewBox="0 0 104 115" fill="none" xmlns="http://www.w3.org/2000/svg">
<path d="M15.5867 95.9605C15.5867 91.3821 14.2358 89.0315 11.5331 88.9035C10.4606 88.8535 9.3892 89.0235 8.38649 89.4029C7.57089 89.6863 7.02292 89.9634 6.73406 90.2456V101.173C8.46295 102.222 9.99856 102.708 11.3366 102.642C14.1689 102.461 15.5867 100.228 15.5867 95.971V95.9605ZM18.9213 96.1494C18.9213 98.4748 18.3563 100.406 17.2221 101.942C15.9562 103.68 14.2018 104.574 11.96 104.623C10.2694 104.676 8.52773 104.163 6.73512 103.091V113.022L3.83594 112.023V89.9791C4.3117 89.4156 4.92446 88.9297 5.66572 88.51C7.39142 87.5383 9.48882 87.0387 11.9558 87.0146L11.9983 87.0545C14.2539 87.0272 15.9913 87.9213 17.2019 89.7356C18.3404 91.3999 18.9011 93.5323 18.9011 96.14L18.9213 96.1494ZM36.6381 102.669C36.6381 105.789 36.3142 107.947 35.6675 109.15C35.0207 110.353 33.7804 111.312 31.9527 112.025C30.4713 112.589 28.8698 112.896 27.1505 112.949L26.6726 111.184C28.4206 110.953 29.6514 110.724 30.3651 110.494C31.7701 110.035 32.7333 109.34 33.2642 108.396C33.689 107.626 33.8982 106.158 33.8982 103.986V103.257C31.9155 104.128 29.8383 104.558 27.6645 104.558C26.2912 104.578 24.9551 104.117 23.8934 103.256C22.6753 102.309 22.0668 101.108 22.0668 99.6522V87.9853L24.966 87.0262V98.7581C24.966 100.011 25.3844 100.977 26.2223 101.654C27.0602 102.332 28.1339 102.657 29.4741 102.632C30.8143 102.608 32.2278 102.108 33.74 101.137V87.4501H36.6392V102.671L36.6381 102.669ZM47.9588 104.471L47.003 104.511C45.3633 104.511 44.0847 104.133 43.1714 103.377C42.2581 102.622 41.8046 101.576 41.8046 100.243V89.2109H39.8187V87.448H41.8046V82.7678L44.7006 81.7709V87.4459H47.9588V89.2088H44.7091V100.164C44.7091 101.216 45.0012 101.948 45.5842 102.395C46.0854 102.754 46.8819 102.959 47.9662 103.011V104.48L47.9588 104.471ZM65.511 104.24H62.6118V93.4315C62.6118 92.3318 62.3464 91.3852 61.8154 90.594C61.5451 90.1698 61.1674 89.8228 60.7196 89.5873C60.2717 89.3519 59.7694 89.2363 59.2624 89.2519C57.9328 89.2519 56.2708 89.9287 54.2764 91.2835V104.243H51.3772V78.4014L54.2764 77.5199V89.276C56.1285 87.9748 58.1526 87.3211 60.3509 87.3211C61.8865 87.3211 63.1301 87.8205 64.0816 88.8164C65.0331 89.8122 65.5121 91.0536 65.5121 92.5364V104.23L65.511 104.24ZM80.9224 95.5303C80.9224 93.7715 80.5762 92.3192 79.888 91.1701C79.0703 89.7692 77.798 89.0315 76.0787 88.9665C72.9002 89.1449 71.3147 91.3443 71.3147 95.5607C71.3147 97.4947 71.6333 99.1097 72.3108 100.406C73.1604 102.057 74.4348 102.872 76.1361 102.844C79.3273 102.82 80.9224 100.387 80.9224 95.5407V95.5303ZM84.1083 95.5492C84.1083 98.053 83.4456 100.137 82.1224 101.8C80.6675 103.663 78.6551 104.598 76.0904 104.598C73.547 104.598 71.5643 103.653 70.1434 101.8C68.8456 100.136 68.1999 98.054 68.1999 95.5492C68.1999 93.1954 68.9008 91.2152 70.3027 89.6044C71.7841 87.894 73.7328 87.0367 76.1393 87.0367C78.5457 87.0367 80.5071 87.895 82.0173 89.6044C83.4191 91.2163 84.12 93.1954 84.12 95.5492H84.1083ZM100.718 104.251H97.8077V92.827C97.8077 91.5741 97.418 90.5961 96.6374 89.8909C95.8569 89.1858 94.8172 88.8489 93.5195 88.8762C92.1432 88.9003 90.8327 89.3358 89.5902 90.1774V104.239H86.691V89.8206C88.3583 88.6474 89.895 87.8814 91.2968 87.512C92.62 87.1783 93.7871 87.0125 94.7928 87.0125C95.4809 87.0125 96.1277 87.0754 96.7362 87.2056C97.8746 87.4595 98.8007 87.9318 99.5154 88.6244C100.312 89.3904 100.708 90.3096 100.708 91.3842V104.229L100.718 104.251Z" fill="#646464"/>
<path d="M30.4032 11.0928C30.4032 6.28617 31.7374 3.67132 39.1037 2.42617C44.1048 1.57937 50.5171 1.47352 56.4985 2.42617C61.2227 3.17947 65.199 6.57903 65.199 11.0928V26.951C65.199 31.602 61.3385 35.4119 56.4985 35.4119H39.1037C33.2002 35.4119 28.2246 40.2747 28.2246 45.7722V53.3807H22.2436C17.1845 53.3807 14.2389 49.8566 13.0015 44.9254C11.3324 38.3006 11.4033 34.3534 13.0015 28.0088C14.3872 22.4739 18.8149 19.5534 23.8744 19.5534H47.8042V17.4364H30.4029V11.0925L30.4032 11.0928Z" fill="url(#paint0_linear_182_621)"/>
<path d="M65.1992 61.8421C65.1992 66.6488 60.8811 69.0833 56.4987 70.2974C49.9056 72.1279 44.6142 71.8478 39.1039 70.2974C34.5021 69.0025 30.4034 66.3563 30.4034 61.8421V45.984C30.4034 41.42 34.3414 37.523 39.1039 37.523H56.4987C62.2927 37.523 67.3778 32.6856 67.3778 26.951V19.5542H73.9C78.9658 19.5542 81.3507 23.1902 82.6005 28.0095C84.3405 34.7028 84.4179 39.7084 82.6005 44.9262C80.8412 49.9943 78.9592 53.3815 73.9 53.3815H47.8044V55.4985H65.1992V61.8424V61.8421Z" fill="url(#paint1_linear_182_621)"/>
<path d="M34.7534 10.0407C34.7534 8.28498 36.2099 6.86517 38.0149 6.86517C39.8129 6.86517 41.2764 8.28463 41.2764 10.0407C41.2764 11.7907 39.8133 13.2098 38.0149 13.2098C36.2107 13.2098 34.7534 11.7904 34.7534 10.0407ZM54.326 62.8945C54.326 61.1445 55.7891 59.7254 57.5875 59.7254C59.3918 59.7254 60.849 61.1448 60.849 62.8945C60.849 64.6502 59.3925 66.0701 57.5875 66.0701C55.7895 66.0701 54.326 64.6506 54.326 62.8945Z" fill="white"/>
<defs>
<linearGradient id="paint0_linear_182_621" x1="65.1994" y1="21.8218" x2="11.7768" y2="21.3821" gradientUnits="userSpaceOnUse">
<stop stop-color="#366A96"/>
<stop offset="1" stop-color="#3679B0"/>
</linearGradient>
<linearGradient id="paint1_linear_182_621" x1="83.9344" y1="45.5609" x2="-21.817" y2="45.5609" gradientUnits="userSpaceOnUse">
<stop stop-color="#FFC836"/>
<stop offset="1" stop-color="#FFE873"/>
</linearGradient>
</defs>
</svg>
