<svg width="97" height="112" viewBox="0 0 97 112" fill="none" xmlns="http://www.w3.org/2000/svg">
<path d="M24.3947 80.9953C24.1153 80.9953 23.8371 81.0761 23.5954 81.2375C23.3538 81.3989 23.1322 81.6772 23.1322 82.0345C23.1322 82.0815 23.1048 82.187 23.1958 82.371L23.1721 82.3127L28.0299 98.2354C28.1168 98.5341 28.3255 98.7623 28.5597 98.8933C28.7939 99.0243 29.0516 99.0743 29.3013 99.0743C29.8321 99.0743 30.4149 98.8183 30.5934 98.2413V98.2398L35.4467 82.2574V82.1991C35.4467 82.2797 35.4703 82.2331 35.4703 82.0585C35.4703 81.6951 35.2406 81.4279 34.9952 81.26C34.7498 81.092 34.4609 80.9953 34.1604 80.9953C33.7898 80.9953 33.3635 81.223 33.2206 81.6562L33.2176 81.6607L29.2998 94.8708L25.3672 81.6845C25.3088 81.4489 25.1518 81.2515 24.969 81.1417C24.7862 81.0319 24.5869 80.9951 24.3947 80.9951L24.3947 80.9953ZM63.0848 81.8162C62.3115 81.8162 61.6594 82.4147 61.6594 83.1636C61.6594 83.9124 62.3014 84.5318 63.0848 84.5318C63.8534 84.5318 64.4643 83.9008 64.4643 83.1636C64.4643 82.4263 63.8428 81.8162 63.0848 81.8162ZM51.6957 86.9139C49.0521 86.9139 46.875 89.0512 46.875 91.6198V94.2517C46.875 95.6903 47.4424 96.9234 48.4054 97.7748C49.3684 98.6261 50.7126 99.0967 52.2536 99.0967C53.3919 99.0967 54.3196 98.8392 54.983 98.4896C55.3146 98.3147 55.5811 98.1186 55.7778 97.9049C55.9744 97.6911 56.1197 97.4572 56.1197 97.1647C56.1197 96.8961 56.0173 96.6634 55.8518 96.4544C55.6862 96.2454 55.4255 96.0536 55.0895 96.0536C54.8468 96.0536 54.6605 96.1568 54.4989 96.257C54.3374 96.3572 54.1857 96.4678 54.0031 96.574C53.6379 96.7864 53.154 96.9927 52.2995 96.9927C51.3482 96.9927 50.5548 96.7186 50.0083 96.2585C49.4618 95.7984 49.144 95.1596 49.144 94.322V93.8345H54.0209C54.541 93.8345 55.1193 93.8353 55.6194 93.513C56.1195 93.1904 56.4231 92.5492 56.4231 91.5735C56.4231 88.8715 54.1915 86.914 51.6956 86.914L51.6957 86.9139ZM70.0241 86.9139C68.619 86.9139 67.5856 87.3733 66.9218 88.0639C66.2579 88.7545 65.9715 89.6529 65.9715 90.4924C65.9715 91.5623 66.3994 92.329 67.012 92.8206C67.6247 93.3122 68.387 93.5596 69.1123 93.7806C69.8376 94.0017 70.5318 94.1978 70.998 94.488C71.4641 94.7781 71.7143 95.0919 71.7143 95.7545C71.7143 96.1102 71.6085 96.3933 71.3221 96.6248C71.0357 96.8563 70.5272 97.039 69.6984 97.039C68.718 97.039 68.1701 96.7947 67.7713 96.5456C67.5719 96.421 67.4113 96.2917 67.2459 96.1762C67.0805 96.0607 66.8929 95.9355 66.6301 95.9355C66.3138 95.9355 66.0806 96.1323 65.9389 96.3362C65.7972 96.5401 65.7154 96.7717 65.7154 97.0226C65.7154 97.3328 65.8649 97.6055 66.0766 97.842C66.2883 98.0786 66.5748 98.2891 66.9262 98.4731C67.6289 98.841 68.5965 99.0966 69.7458 99.0966C70.9935 99.0966 72.0196 98.7889 72.7459 98.192C73.4722 97.595 73.8679 96.7075 73.8679 95.6842C73.8679 94.5285 73.452 93.6974 72.8392 93.1481C72.2264 92.5989 71.4527 92.3157 70.7167 92.0879C69.9808 91.86 69.2726 91.6827 68.7986 91.4329C68.3245 91.1831 68.1014 90.9528 68.1014 90.422C68.1014 90.135 68.2151 89.7739 68.504 89.489C68.7929 89.204 69.2643 88.9731 70.0478 88.9731C70.6738 88.9731 71.1391 89.1183 71.5116 89.2722C71.6978 89.3491 71.8597 89.4294 72.0133 89.4965C72.1669 89.5634 72.3086 89.6295 72.5121 89.6295C72.8797 89.6295 73.1316 89.3846 73.2817 89.157C73.4319 88.9295 73.5186 88.705 73.5186 88.4482C73.5186 88.1265 73.3204 87.8985 73.1012 87.7274C72.8819 87.5564 72.6071 87.4206 72.2886 87.3028C71.6516 87.067 70.8392 86.914 70.024 86.914L70.0241 86.9139ZM36.7887 87.056C36.1741 87.056 35.6431 87.4453 35.6431 88.025V94.298C35.6431 96.8428 37.7846 99.0967 40.4402 99.0967C43.051 99.0967 45.2372 96.8693 45.2372 94.298V88.0026C45.2372 87.7125 45.0792 87.4608 44.8716 87.3013C44.664 87.1417 44.4002 87.056 44.1138 87.056C43.8273 87.056 43.5621 87.1406 43.3501 87.2968C43.138 87.453 42.9682 87.7027 42.9682 88.0026V94.298C42.9682 95.632 41.8176 96.9224 40.4402 96.9224C39.0399 96.9224 37.9122 95.609 37.9122 94.298V88.025C37.9122 87.7245 37.7498 87.4928 37.5481 87.3281C37.3465 87.1634 37.0831 87.056 36.7888 87.056L36.7887 87.056ZM63.0856 87.056C62.7982 87.056 62.532 87.1307 62.3203 87.2922C62.1087 87.4538 61.9636 87.7196 61.9636 88.0025V99.5604C61.9636 100.428 61.9035 101.155 61.715 101.596C61.5265 102.036 61.3041 102.231 60.6685 102.231C60.107 102.231 59.6383 102.727 59.6383 103.32C59.6383 103.566 59.717 103.837 59.9166 104.048C60.1162 104.259 60.426 104.383 60.7839 104.383C61.9921 104.383 62.9165 103.842 63.4673 102.962C64.0182 102.083 64.2326 100.907 64.2326 99.5604V88.0025C64.2326 87.7013 64.0623 87.4393 63.8463 87.2847C63.6303 87.1301 63.3649 87.0559 63.0855 87.0559L63.0856 87.056ZM51.6722 88.9491C53.1812 88.9491 54.2001 90.2255 54.2001 91.5256C54.2001 91.6673 54.1851 91.76 54.1705 91.8023C54.156 91.8444 54.1574 91.839 54.1365 91.8531C54.0947 91.8813 53.8618 91.9413 53.4157 91.9413H49.1441V91.4314C49.1441 90.0707 50.2691 88.9491 51.6721 88.9491L51.6722 88.9491ZM58.8802 96.1239C58.056 96.1239 57.4312 96.813 57.4312 97.6103C57.4312 98.3761 58.0466 99.0742 58.8802 99.0742C59.6699 99.0742 60.3056 98.3974 60.3056 97.6103C60.3056 96.7933 59.6594 96.1239 58.8802 96.1239Z" fill="#35495E"/>
<path d="M23.7981 6.30127L38.749 6.30698L48.5222 22.6965L58.2609 6.3083L73.1988 6.30429L48.5969 49.4189L23.7981 6.30127Z" fill="#35495E"/>
<path d="M7.49243 6.41668L23.7849 6.30432L48.5824 49.4209L73.1856 6.30695L89.5067 6.32422L48.5798 77.2855L7.49243 6.41668Z" fill="#41B883"/>
</svg>
